<svg xmlns="http://www.w3.org/2000/svg" width="1200" height="750" viewBox="0 0 1200 750" role="img" aria-label="Project placeholder">
  <defs>
    <linearGradient id="bg" x1="0" y1="0" x2="1" y2="1">
      <stop offset="0" stop-color="#0c0c16"/>
      <stop offset="1" stop-color="#06060a"/>
    </linearGradient>
    <radialGradient id="g1" cx="22%" cy="28%" r="55%">
      <stop offset="0" stop-color="#7c5cff" stop-opacity="0.55"/>
      <stop offset="1" stop-color="#7c5cff" stop-opacity="0"/>
    </radialGradient>
    <radialGradient id="g2" cx="82%" cy="78%" r="55%">
      <stop offset="0" stop-color="#21d4fd" stop-opacity="0.5"/>
      <stop offset="1" stop-color="#21d4fd" stop-opacity="0"/>
    </radialGradient>
    <radialGradient id="g3" cx="62%" cy="20%" r="40%">
      <stop offset="0" stop-color="#ff5db1" stop-opacity="0.35"/>
      <stop offset="1" stop-color="#ff5db1" stop-opacity="0"/>
    </radialGradient>
    <linearGradient id="txt" x1="0" y1="0" x2="1" y2="0">
      <stop offset="0" stop-color="#7c5cff"/>
      <stop offset="0.5" stop-color="#21d4fd"/>
      <stop offset="1" stop-color="#ff5db1"/>
    </linearGradient>
  </defs>

  <rect width="1200" height="750" fill="url(#bg)"/>
  <rect width="1200" height="750" fill="url(#g1)"/>
  <rect width="1200" height="750" fill="url(#g2)"/>
  <rect width="1200" height="750" fill="url(#g3)"/>

  <!-- subtle grid -->
  <g stroke="#ffffff" stroke-opacity="0.05">
    <path d="M0 150H1200M0 300H1200M0 450H1200M0 600H1200"/>
    <path d="M150 0V750M300 0V750M450 0V750M600 0V750M750 0V750M900 0V750M1050 0V750"/>
  </g>

  <text x="600" y="360" text-anchor="middle"
        font-family="'Space Grotesk', system-ui, sans-serif" font-weight="700" font-size="120"
        fill="url(#txt)" letter-spacing="-4">NS</text>
  <text x="600" y="430" text-anchor="middle"
        font-family="'Inter', system-ui, sans-serif" font-weight="600" font-size="30"
        fill="#f4f4f7">Your Next Project</text>
  <text x="600" y="470" text-anchor="middle"
        font-family="'Inter', system-ui, sans-serif" font-size="20"
        fill="#9092a4">Replace with assets/img/project-3.jpg · 1200 × 750</text>
</svg>
